# xmcd
#
# Track frame offsets: 
#        150
#        16289
#        36645
#        52626
#        70546
#        90218
#        111925
#        122565
#        139952
#        159922
#        177968
#        205500
#
# Disc length: 2988 seconds
#
# Revision: 0
# Processed by: cddbd v1.5.2PL0 Copyright (c) Steve Scherf et al.
# Submitted via: ExactAudioCopy v1.0b4
#
DISCID=900baa0c
DTITLE=No Refund Band - Current State Of Blue
DYEAR=2014
DGENRE=Blues Rock
TTITLE0=Buy The Blues
TTITLE1=Current State Of Blue
TTITLE2=St. Louis Bound
TTITLE3=Favorite Fool
TTITLE4=Love Unmade
TTITLE5=Bell Bottom Blues
TTITLE6=Mississippi Queen
TTITLE7=I Gotta Play
TTITLE8=Bought and Sold
TTITLE9=Blues Man Dying
TTITLE10=Still Got The Blues
TTITLE11=She Take Me
EXTD=
EXTT0=
EXTT1=
EXTT2=
EXTT3=
EXTT4=
EXTT5=
EXTT6=
EXTT7=
EXTT8=
EXTT9=
EXTT10=
EXTT11=
PLAYORDER=
